<svg xmlns="http://www.w3.org/2000/svg" width="16" height="16" viewBox="0 0 16 16" fill="none"
     class="inline align-middle">
    <path d="M16 8.00009C16 8.73319 15.7147 9.39828 15.2513 9.88607L11.5874 13.6252C11.3801 13.8327 11.1395 14.0058 10.8746 14.1353C10.5277 14.305 10.139 14.4001 9.72854 14.4001C9.318 14.4001 8.94705 14.2907 8.60003 14.121C8.32769 13.9877 8.05982 13.8195 7.84858 13.6041L4.83804 10.5317C5.12975 10.1542 5.58189 9.91196 6.08949 9.91196C6.46744 9.91196 6.81465 10.0463 7.08778 10.2707L9.00266 12.2249C9.19273 12.4075 9.44676 12.5173 9.72835 12.5173C10.01 12.5173 10.266 12.4054 10.4561 12.2229L13.8758 8.73292C14.0494 8.53998 14.1553 8.28267 14.1553 8.0001C14.1553 7.71759 14.0494 7.46033 13.8759 7.26741L10.4466 3.76772C10.2576 3.59058 10.0055 3.48244 9.72858 3.48244C9.45173 3.48244 9.19962 3.59056 9.01058 3.76767L0.45153 12.5026C0.347817 12.608 0.179973 12.6079 0.0764052 12.5022C0.0314234 12.4563 0.00595599 12.398 3.2524e-06 12.3381L3.25058e-06 10.6303C3.25043e-06 10.4885 0.0533734 10.3594 0.140733 10.2628L1.6348 8.73805C1.81011 8.54476 1.91726 8.28615 1.91726 8.002C1.91726 7.70279 1.80028 7.43159 1.60819 7.23547L0.151574 5.74893C0.142229 5.73919 0.133242 5.72907 0.124633 5.7186C0.047233 5.6245 0.000450827 5.50234 3.245e-06 5.37022L4.001e-09 5.3683L3.245e-06 5.36639L3.24319e-06 3.6628C0.00595598 3.60289 0.0314234 3.54461 0.0764052 3.4987C0.18009 3.39289 0.348425 3.39289 0.45211 3.4987L2.86906 5.9653C3.06047 6.15595 3.32181 6.27139 3.6104 6.27139C3.89893 6.27139 4.16077 6.15543 4.35217 5.96485L7.87505 2.3696C8.0811 2.16454 8.3197 1.99339 8.58219 1.86497C8.9292 1.69519 9.31798 1.6001 9.72851 1.6001C10.1391 1.6001 10.5279 1.69521 10.8749 1.86501C11.1397 1.99456 11.3802 2.16759 11.5874 2.37503L15.2513 6.11411C15.4498 6.32308 15.6156 6.56458 15.7404 6.83003C15.9068 7.18422 16 7.58105 16 8.00009Z"
          fill="currentColor"></path>
</svg>
